<svg id="eQ9ZyKTsuzU1" xmlns="http://www.w3.org/2000/svg" xmlns:xlink="http://www.w3.org/1999/xlink" viewBox="0 0 300 300" shape-rendering="geometricPrecision" text-rendering="geometricPrecision" project-id="40a39db230574a95b319252d55562deb" export-id="f74babffa10f4f25876803dc29a1d3fe" cached="false"><path d="" fill="none" stroke="#3f5787" stroke-width="0.6"/><path d="M117.921424,70.067319q-5.238094,27.142856-5.238094,26.666666t9.523806,5.690477l-.000001-34.738098-4.285711,2.380955Z" transform="translate(.000011 0.000002)" fill="none" stroke="#22c2b5" stroke-width="3"/><path d="M166.849993,198.614938l1.904762-20.928572l19.047619-1.904762l5.238094,13.333334-5.238094,5.214286q-8.333336,27.119048,11.547616,4.285714-2.857143,16.190477-18.571428,36.190476l-63.333333-2.857143q-1.42857-12.380951.476192-12.380951c1.904762,0-4.761904-25.238096-5.238094-25.238096s-8.942658-34.21308-9.523809-44.329222q-.581151-10.116142-.708249-10.294079-7.863178-26.805269-12.148893-37.28146t-.47619-14.761904l13.333333-34.761907l19.362199-11.040218q-.790775-22.769306,15.399701-11.816925c16.190476,10.952381,4.64057,97.998339,11.624759,97.998339" transform="translate(.000003 0.000001)" fill="none" stroke="#22c2b5" stroke-width="3" stroke-linecap="round"/><path d="M199.349993,198.614939l4.166666-4.285714q8.842767-4.930365,4.41991-11.977088t-4.41991-18.571428q1.785717-8.951486-10.476189-8.951486t-43.040471,0l-12.078578-4.82922" transform="translate(.000001 0)" fill="none" stroke="#22c2b5" stroke-width="3" stroke-linecap="round"/><path d="M197.302288,154.977819c-2.455712,1.194324,6.472953-4.259619,7.93646-19.544769-10.19984-10.030106-19.62747-18.370669-24.460184-23.080913q-4.832714-4.710244-12.023806,0Q150,130.516357,137.921425,135.305414t-15.714286-32.88095" transform="translate(-.16836 0.000005)" fill="none" stroke="#22c2b5" stroke-width="3"/><path d="M180.778565,154.829222l-23.794376.000001L158.41276,150q18.004677-16.535529,22.365805-14.694587c4.361128,1.840942,4.358405,1.829777,0,0q14.047624,5.113143,7.023812,9.903866t-7.023812,9.619943Z" transform="translate(-2.956789 0.000001)" fill="none" stroke="#22c2b5" stroke-width="3"/><path d="M197.905776,154.562219l11.957425-35.112813c1.191711-3.250122,1.000673-5.905851-.454387-7.097269l-8.811637-7.18155c-2.737635-1.350262-6.43317,7.388269-11.816801,15.030971" transform="translate(2.586307 1.411779)" fill="none" stroke="#22c2b5" stroke-width="3"/><path d="M122.523087,41.359894l-.315947,26.326472" transform="translate(-.019998 0.02)" fill="none" stroke="#22c2b5" stroke-width="3"/><path d="M141.456219,34.370749c15.476534,4.637897,16.41724,10.980099,5.448737,25.117348" transform="translate(.132896 0.000001)" fill="none" stroke="#22c2b5" stroke-width="3"/><path d="M180.604098,135.833752c-1.839551,5.869523-9.226034,14.913534-13.097372,18.030352" transform="translate(3.119637 0.945344)" fill="none" stroke="#22c2b5" stroke-width="3"/></svg>
